<svg width="174" height="28" viewBox="0 0 174 28" fill="none" xmlns="http://www.w3.org/2000/svg">
<g clip-path="url(#clip0_285_1544)">
<path d="M132.768 11.7456L128.025 11.6895H127.938L124.881 11.6584H124.75L118.161 11.5774H117.93L115.016 11.5463H114.735L111.415 11.5089H111.085L108.127 11.4715H107.896L107.509 11.4653L104.752 11.4342H104.321L95.679 11.3283H95.1175L92.5343 11.2972H91.9228L89.1648 11.2536H88.5034L86.02 11.2224H85.315L82.9376 11.1851H82.1889L79.5121 11.1477H78.7072L72.7857 11.0792L71.8872 11.0667L69.6409 11.0418L68.6925 11.0294L60.5684 10.936L59.489 10.9235L57.4236 10.9048L56.3005 10.8924L54.2976 10.8675L53.1245 10.855L51.0529 10.8301L49.8362 10.8176L45.899 10.7678L44.6011 10.7554L42.7542 10.7367L41.4127 10.7242L39.6905 10.7055L38.2991 10.6868L36.0029 10.6619L34.549 10.6433L28.7898 10.581L27.2549 10.5623L25.1833 10.5436L23.5922 10.5249L21.8638 10.5062L20.2165 10.4876L18.719 10.4689L17.0218 10.4502L14.4011 10.4191L12.6291 10.4004L8.45475 10.3505L6.60781 10.3319L5.08533 10.3132L3.18847 10.2945L2.07157 10.282C2.02789 10.282 1.98421 10.282 1.94054 10.2883C0.854834 10.3568 0 11.4093 0 12.7109V15.2892C0 16.5908 0.854834 17.6433 1.94054 17.7118C1.98421 17.7118 2.02789 17.7118 2.07157 17.7118L3.18847 17.6993L5.08533 17.6806L6.60781 17.6619L8.45475 17.6433L9.80252 17.6246L11.5995 17.6059L14.1516 17.5747L15.8737 17.5561L20.2165 17.5062L21.8638 17.4876L23.5859 17.4689L25.1771 17.4502L27.2237 17.4315L28.7586 17.4128L34.886 17.3443L36.3273 17.3256L38.3365 17.307L39.728 17.2883L41.4127 17.2696L42.7542 17.2571L44.6011 17.2384L45.899 17.2198L46.9472 17.2073L48.2014 17.1949L50.4976 17.1699L51.7019 17.1575L56.3005 17.1014L57.4236 17.089L59.489 17.0703L60.5684 17.0578L68.6925 16.9644L69.6409 16.952L71.8872 16.9271L72.7857 16.9146L78.7633 16.8523H79.5682L82.2263 16.815H82.9751L85.315 16.7776H86.02L88.5034 16.7465H89.1648L91.9228 16.7029H92.5343L95.1175 16.6717H95.679L104.321 16.5659H104.752L107.509 16.5285H107.896L111.128 16.4911H111.459L114.411 16.4538H114.685L115.016 16.4475L117.93 16.4164H118.161L124.75 16.3354H124.881L127.938 16.3043H128.025L132.768 16.2482C133.379 16.242 133.866 15.6628 133.866 14.9466V13.0472C133.866 12.3247 133.379 11.7456 132.768 11.7393V11.7456ZM3.18847 15.2705C2.5957 15.2705 2.09029 14.8719 1.94054 14.3301C1.90934 14.2242 1.89686 14.1121 1.89686 14C1.89686 13.8879 1.90934 13.7758 1.94054 13.6699C2.09029 13.1281 2.5957 12.7296 3.18847 12.7296C3.90603 12.7296 3.23215 13.2963 3.23215 14C3.23215 14.7038 3.90603 15.2705 3.18847 15.2705ZM5.08533 15.3328C4.34905 15.3328 3.75004 14.7349 3.75004 14C3.75004 13.2651 4.34905 12.6673 5.08533 12.6673C5.82161 12.6673 6.42062 13.2651 6.42062 14C6.42062 14.7349 5.82161 15.3328 5.08533 15.3328Z" fill="#DAD7CD"/>
<path d="M139.432 0H169.438C171.734 0 173.6 1.8621 173.6 4.15391V16.7402C173.6 22.9555 168.546 28.0062 162.312 28.0062H139.432C137.135 28.0062 135.27 26.1441 135.27 23.8523V4.15391C135.27 1.8621 137.135 0 139.432 0Z" fill="#3A5A40"/>
<path d="M144.192 6.19037V21.8345H147.337V6.19037H144.192Z" fill="#DAD7CD"/>
<path d="M159.043 6.16547H155.38L149.74 21.8345H153.047L154.076 18.8514H160.322L161.358 21.8345H164.677L159.043 6.16547ZM154.931 16.3416L157.202 9.79625L159.467 16.3416H154.931Z" fill="#DAD7CD"/>
<path d="M1.94055 6.20905V21.8594H5.08534V15.3327C4.34906 15.3327 3.75006 14.7348 3.75006 14C3.75006 13.2651 4.34906 12.6672 5.08534 12.6672V6.20905H1.94055Z" fill="#3A5A40"/>
<path d="M18.719 6.18414V16.9519L14.4012 10.419L14.3887 10.4003L11.5996 6.18414H8.45477V21.8594H11.5996V11.1165L15.8737 17.5623L15.8862 17.5809L18.719 21.8594H21.8638V6.18414H18.719Z" fill="#3A5A40"/>
<path d="M31.6601 13.1592V15.5569H37.0511C36.9014 16.242 36.6643 16.8336 36.3273 17.3318C36.3273 17.3381 36.3273 17.3443 36.3211 17.3505C36.1027 17.6806 35.8469 17.9671 35.5474 18.2162C34.7799 18.8514 33.8003 19.169 32.6023 19.169C31.6289 19.169 30.774 18.9573 30.044 18.54C29.5448 18.2535 29.1143 17.8861 28.7711 17.4377C28.7711 17.4315 28.7586 17.4252 28.7586 17.419C28.5964 17.2135 28.4466 16.9893 28.3218 16.7464C27.91 15.968 27.7041 15.0587 27.7041 14.0124C27.7041 12.9662 27.91 12.1005 28.3094 11.322C28.4466 11.0542 28.6089 10.8051 28.7898 10.5809C28.7898 10.5747 28.7961 10.5685 28.8023 10.5623C29.133 10.145 29.5323 9.79624 29.9941 9.52845C30.7179 9.11119 31.5415 8.89945 32.465 8.89945C33.3073 8.89945 34.0374 9.07382 34.6676 9.41635C35.2104 9.70905 35.6472 10.1201 35.9904 10.6432C35.9966 10.6494 35.9966 10.6557 36.0029 10.6619C36.0528 10.7429 36.1089 10.8301 36.1526 10.9172H39.7654C39.7404 10.8487 39.7217 10.774 39.6905 10.7055C39.6905 10.6993 39.6905 10.693 39.6905 10.6868C39.1851 9.2482 38.3178 8.11475 37.0761 7.29891C35.7782 6.43948 34.2433 6.00977 32.4712 6.00977C30.9737 6.00977 29.6197 6.34606 28.3967 7.03112C27.1737 7.70994 26.2191 8.65656 25.5202 9.8772C25.4017 10.0889 25.2894 10.3069 25.1958 10.5249C25.1958 10.5311 25.1895 10.5373 25.1895 10.5436C24.7153 11.5898 24.4782 12.7482 24.4782 14.0124C24.4782 15.2767 24.7153 16.4226 25.1833 17.4564C25.1833 17.4626 25.1833 17.4688 25.1833 17.4751C25.2769 17.6993 25.3892 17.9235 25.514 18.1352C26.2128 19.3496 27.1675 20.2962 28.3905 20.9751C29.6135 21.6539 30.9799 21.9902 32.4899 21.9902C33.8377 21.9902 35.0544 21.7162 36.1401 21.1557C37.2258 20.5889 38.1119 19.8478 38.8045 18.9199C39.1851 18.4092 39.4908 17.8799 39.7217 17.3131C39.7217 17.3069 39.7217 17.3007 39.7217 17.2945C39.9151 16.8461 40.0524 16.379 40.146 15.8932V13.1592H31.6538H31.6601Z" fill="#3A5A40"/>
<path d="M51.7081 17.1761V17.1637L50.7285 15.5133C51.914 15.2019 52.8063 14.629 53.4053 13.8007C54.0043 12.9724 54.3038 12.0382 54.3038 11.0106C54.3038 10.9671 54.3038 10.911 54.2976 10.8674V10.855C54.2788 10.0204 54.0605 9.25442 53.6611 8.57559C53.2368 7.85317 52.5941 7.27399 51.7393 6.8505C50.8845 6.42079 49.8549 6.20905 48.6382 6.20905H42.7542V21.8594H45.899V15.7624H47.384L48.2014 17.201V17.2135L50.8408 21.8594H54.4785L51.7081 17.1761ZM45.899 13.4083V8.81225H48.5259C49.3807 8.81225 50.0172 9.01154 50.4352 9.40389C50.8096 9.75264 51.0093 10.226 51.0529 10.8176V10.83C51.0654 10.9048 51.0654 10.992 51.0654 11.0729C51.0654 11.8078 50.8595 12.3808 50.4352 12.7918C50.0172 13.2028 49.3807 13.4083 48.5259 13.4083H45.899Z" fill="#3A5A40"/>
<path d="M60.5684 8.74375H66.5211V6.18414H57.4236V21.8594H66.5211V19.2998H60.5684V15.1521H65.8472V12.6672H60.5684V8.74375Z" fill="#3A5A40"/>
<path d="M82.9377 11.185C82.7879 10.7366 82.5945 10.3194 82.3698 9.92079C81.6835 8.73129 80.7226 7.81581 79.4684 7.17435C78.2205 6.53289 76.7729 6.20905 75.1256 6.20905H69.6409V21.8594H75.1256C76.7729 21.8594 78.2205 21.5356 79.4684 20.8941C80.7226 20.2526 81.6835 19.3434 82.3698 18.1726C82.6132 17.7491 82.8191 17.3007 82.9751 16.8211C83.2559 15.9742 83.3932 15.0587 83.3932 14.056C83.3932 13.0534 83.2434 12.0569 82.9377 11.185ZM79.562 16.8585C79.3686 17.2259 79.1252 17.556 78.832 17.8487C77.9334 18.7455 76.6606 19.1877 75.0133 19.1877H72.7857V8.85584H75.0133C76.6606 8.85584 77.9334 9.3167 78.832 10.2322C79.1003 10.5062 79.3249 10.8051 79.5058 11.1414C79.5058 11.1414 79.5058 11.1477 79.5121 11.1477C79.9551 11.9448 80.1797 12.9101 80.1797 14.056C80.1797 15.2019 79.9738 16.0863 79.5682 16.8523C79.562 16.8523 79.562 16.8523 79.562 16.8523V16.8585Z" fill="#3A5A40"/>
<path d="M86.0201 6.20905V21.8594H89.1648V6.20905H86.0201Z" fill="#3A5A40"/>
<path d="M95.6791 8.74375H101.632V6.18414H92.5343V21.8594H101.632V19.2998H95.6791V15.1521H100.958V12.6672H95.6791V8.74375Z" fill="#3A5A40"/>
<path d="M115.016 6.18414V16.9519L114.691 16.4599H114.685L111.415 11.5089L107.896 6.18414H104.752V21.8594H107.896V11.1165L108.127 11.4653L111.459 16.4911L115.016 21.8594H118.161V6.18414H115.016Z" fill="#3A5A40"/>
<path d="M120.7 6.20905V8.74374H124.881V21.8594H128.025V8.74374H132.2V6.20905H120.7Z" fill="#3A5A40"/>
</g>
<defs>
<clipPath id="clip0_285_1544">
<rect width="173.6" height="28" fill="white"/>
</clipPath>
</defs>
</svg>
