<svg width="16" height="16" viewBox="0 0 16 16" fill="none" xmlns="http://www.w3.org/2000/svg">
<g clip-path="url(#clip0_285_1540)">
<path d="M1.66667 8.00002C1.66667 5.01469 1.66667 3.52135 2.59401 2.59402C3.52134 1.66669 5.01401 1.66669 8.00001 1.66669C10.9853 1.66669 12.4787 1.66669 13.406 2.59402C14.3333 3.52135 14.3333 5.01402 14.3333 8.00002C14.3333 10.9854 14.3333 12.4787 13.406 13.406C12.4787 14.3334 10.986 14.3334 8.00001 14.3334C5.01467 14.3334 3.52134 14.3334 2.59401 13.406C1.66667 12.4787 1.66667 10.986 1.66667 8.00002Z" stroke="#588157" stroke-width="1.5" stroke-linecap="round" stroke-linejoin="round"/>
<path d="M5.33334 8.33333L7.00001 10L10.6667 6" stroke="#588157" stroke-width="1.5" stroke-linecap="round" stroke-linejoin="round"/>
</g>
<defs>
<clipPath id="clip0_285_1540">
<rect width="16" height="16" fill="white"/>
</clipPath>
</defs>
</svg>
