<svg width="28" height="28" viewBox="0 0 28 28" fill="none" xmlns="http://www.w3.org/2000/svg">
<path d="M19.8333 8.16665V12.8333M19.8333 8.16665C19.8333 6.61955 19.2188 5.13582 18.1248 4.04186C17.0308 2.94789 15.5471 2.33331 14 2.33331C12.4529 2.33331 10.9692 2.94789 9.87522 4.04186C8.78125 5.13582 8.16667 6.61955 8.16667 8.16665V12.8333C8.16667 14.3804 8.78125 15.8641 9.87522 16.9581C10.9692 18.0521 12.4529 18.6666 14 18.6666C15.5471 18.6666 17.0308 18.0521 18.1248 16.9581C19.2188 15.8641 19.8333 14.3804 19.8333 12.8333M19.8333 8.16665H16.3333M19.8333 12.8333H16.3333M23.3333 12.8333C23.3333 15.3087 22.35 17.6826 20.5997 19.433C18.8493 21.1833 16.4754 22.1666 14 22.1666M14 22.1666C11.5247 22.1666 9.15068 21.1833 7.40034 19.433C5.65 17.6826 4.66667 15.3087 4.66667 12.8333M14 22.1666V25.6666M14 25.6666H17.5M14 25.6666H10.5" stroke="#588157" stroke-width="2" stroke-linecap="round" stroke-linejoin="round"/>
</svg>
