<svg width="28" height="28" viewBox="0 0 28 28" fill="none" xmlns="http://www.w3.org/2000/svg">
<path d="M24.5 19.7505V11.6666C24.5 7.26715 24.5 5.06681 23.1327 3.70065C21.7653 2.33448 19.5662 2.33331 15.1667 2.33331H14C9.60051 2.33331 7.40017 2.33331 6.03401 3.70065C4.66784 5.06798 4.66667 7.26715 4.66667 11.6666V22.75" stroke="black" stroke-width="1.5" stroke-linecap="round" stroke-linejoin="round"/>
<path d="M24.5 19.8333H7.58334C6.80979 19.8333 6.06792 20.1406 5.52094 20.6876C4.97396 21.2346 4.66667 21.9764 4.66667 22.75C4.66667 23.5235 4.97396 24.2654 5.52094 24.8124C6.06792 25.3594 6.80979 25.6666 7.58334 25.6666H24.5" stroke="black" stroke-width="1.5" stroke-linecap="round" stroke-linejoin="round"/>
<path d="M24.5 25.6666C23.7265 25.6666 22.9846 25.3593 22.4376 24.8124C21.8906 24.2654 21.5833 23.5235 21.5833 22.75C21.5833 21.9764 21.8906 21.2345 22.4376 20.6876C22.9846 20.1406 23.7265 19.8333 24.5 19.8333M16.786 7.99163C17.1685 7.73147 17.6207 7.59281 18.0833 7.59379C19.3725 7.59379 20.4167 8.64729 20.4167 9.94696C20.4167 11.2268 19.362 12.2966 18.0833 12.2966V13.4166C18.0833 14.5168 18.0833 15.0663 17.7415 15.4081C17.3997 15.75 16.8502 15.75 15.75 15.75H13.4167C12.3165 15.75 11.767 15.75 11.4252 15.4081C11.0833 15.0663 11.0833 14.5168 11.0833 13.4166V12.4425C9.72067 12.4425 8.75 11.4275 8.75 9.94696C8.75 8.64729 9.79417 7.59379 11.0833 7.59379C11.564 7.59379 12.0097 7.73963 12.3807 7.99046C12.5386 7.53167 12.8356 7.13353 13.2304 6.85145C13.6252 6.56937 14.0981 6.41737 14.5833 6.41663C15.6007 6.41663 16.4663 7.07346 16.786 7.99163ZM16.786 7.99163C16.8716 8.23585 16.9151 8.49563 16.9167 8.77096" stroke="black" stroke-width="1.5" stroke-linecap="round" stroke-linejoin="round"/>
</svg>
